
<svg xmlns="http://www.w3.org/2000/svg" viewBox="0 0 500 500">
	<title> new york </title>
		<defs>
			<style>
				path {
				  stroke-dasharray: 1000;
				  stroke-dashoffset: 1000;
				  animation: offset 5s linear alternate infinite;
				  fill: white;
				}

				@keyframes offset {
				  from {
				    stroke-dashoffset: 1000;
				  }
				  to {
				    stroke-dashoffset: 0;
				  }
				}
			</style>
		</defs>

		<path fill="white" stroke="#000000" stroke-width="4" stroke-miterlimit="10" d="M20.5,80c-0.32-7.76,8.69-11.72,15.09-12.95c7.8-1.5,13.36,3.76,16.63,10.27c6.31,12.56,5.25,28.39,5.36,42.06
			c0.33,43.51-8.02,86.56-13.07,129.63c0.98-0.13,1.96-0.27,2.95-0.4c-6.91-25.56-0.99-53.47,7.39-77.95
			c6.18-18.06,14.85-35.16,26.62-50.23c4.97-6.37,10.98-13.34,18.62-16.51c7.79-3.23,14.44,2.45,16.92,9.73
			c4.56,13.37-2.95,28.79,4.19,41.69c4.03,7.28,13.92,9.24,21.49,7.82c8.63-1.62,15.24-9.96,19.65-16.91
			c4.44-7,16.52-36.75-2.72-32.68c-0.49,0.1-0.93,0.57-1.05,1.05c-2.62,10.53,1.05,23.26,12.75,26.04
			c13.37,3.18,18.2-12.14,18.2-22.39c0-1.93-3-1.93-3,0c0,6.71,4.48,15.97,12.34,14.84c8.98-1.3,8.28-14.39,6.6-20.48
			c-0.96,0.27-1.93,0.53-2.89,0.8c2.81,7.04,9.34,8.91,16.45,8.1c0.69-0.08,1.24-0.4,1.45-1.1c0.93-3.08,1.46-6.08,1.68-9.27
			c0.13-1.91-1.37-6.77,0.14-8.23c3.07-2.98,9.06-7.87,12.01-2.33c3.87,7.26,1,18.75-0.77,26.22c-4.2,17.72-16.24,39.22-6.99,57.2
			c5.99,11.65,22.57,17.9,34.32,11.94c11.94-6.05,18.2-20.94,22.38-32.81c3.8-10.82,6.17-22.14,7.65-33.49
			c1.12-8.53,1.87-17.46,0.57-26.02c-0.25-1.67-3.12-1.28-2.95,0.4c1.44,14.13,9.76,26.11,14.05,39.4
			c4.7,14.56,7.81,29.75,10.36,44.81c3.95,23.35,7.13,48.08,4.87,71.78c-1.54,16.08-4.82,32.99-12.6,47.3
			c-3.49,6.42-8.48,12.52-15.48,15.18c-7.35,2.8-15.76,0.57-21.99-3.81c-11.72-8.23-11.73-25.14-9.96-37.8
			c2.23-15.94,8.07-31.46,14.9-45.95c5.71-12.11,12.56-23.22,21.24-33.43c13.94-16.4,34.21-34.47,57.11-33.99
			c1.67,0.04,2.08-2.61,0.4-2.95c-7.75-1.54-10.86,7.1-11.68,13.27c-0.71,5.29-1.42,18.23,5.43,20.48
			c13.87,4.55,15.41-29.24,4.25-33.74c-0.13,0.98-0.27,1.96-0.4,2.95c8.94-0.22,18.15-4.2,26.96-1.66
			c7.49,2.16,8.24,8.87,11.75,14.92c0.18-0.68,0.36-1.37,0.54-2.05c-6.49,3.83-10.17,11.61-12.96,18.27
			c-3.36,8.02-5.89,17.69-4.69,26.45c1.86,13.47,15.44,19.7,27.44,14.94c14.16-5.61,24.96-19.4,33.67-31.31
			c7.31-9.99,14.66-21,18.43-32.9c3.57-11.28,9.75-26.01,5.84-37.89c-1.37-4.16-5.72-7.36-10.08-5.63
			c-5.06,2.01-7.73,8.93-9.63,13.52c-7.8,18.89-14.13,38.12-19.42,57.86c-6.28,23.45-11.94,47.11-21.29,69.58
			c0.96,0.27,1.93,0.53,2.89,0.8c1.27-7.87,8.9-19.28,17.74-19.13c2.15,0.04,5.48,1.88,6.26,3.96c0.82,2.17-2.52,4.51-3.92,5.49
			c-3.5,2.44-8.22,4.12-12.52,3.79c-1.5-0.12-2.03,2.11-0.76,2.79c9.29,5,11.96,16.28,15.22,25.51c2.98,8.44,6.78,16.99,14.57,22
			c7.92,5.1,17.89,7.38,27.12,8.39c9.19,1.01,19.64,0.13,26.91-6.13c1.47-1.26-0.66-3.38-2.12-2.12c-7.57,6.52-19.01,6.18-28.31,4.8
			c-9.04-1.34-19.45-4.26-26.13-10.82c-12.41-12.18-9.3-35.37-25.75-44.22c-0.25,0.93-0.5,1.86-0.76,2.79
			c7.57,0.59,27.71-8.99,15.83-17.2c-11.62-8.02-24.62,9.1-26.27,19.3c-0.31,1.93,2.15,2.58,2.89,0.8
			c11.69-28.1,17.64-58.03,26.2-87.13c3.65-12.42,8.34-24.35,12.96-36.41c1.59-4.15,3.31-8.26,5.77-11.98
			c3.1-4.68,8.08-4.75,9.96,0.97c2.79,8.49-1.24,19.67-3.67,27.83c-1.61,5.4-3.19,10.77-5.69,15.83
			c-6.98,14.09-16.38,27.47-27.11,38.93c-9.04,9.66-25.69,24.21-38.46,12.15c-7.34-6.92-5.32-18.08-2.97-26.82
			c2.23-8.3,6.46-19.83,14.32-24.47c0.71-0.42,0.95-1.34,0.54-2.05c-3.33-5.75-4.4-12.93-11.25-15.5
			c-10.06-3.77-19.76,0.5-30.04,0.76c-1.79,0.04-1.91,2.34-0.4,2.95c8.62,3.48,5.21,31.8-2.73,27.9
			c-4.14-2.03-3.66-11.17-3.45-14.81c0.25-4.32,1.88-14.34,8.18-13.09c0.13-0.98,0.27-1.96,0.4-2.95
			c-23.86-0.51-44.56,17.93-59.23,34.87c-10.08,11.64-17.6,24.76-23.88,38.77c-7.11,15.86-12.91,32.99-13.89,50.46
			c-0.79,14.04,3.2,28.79,16.74,35.33c33.14,16.01,45.82-33.13,49.05-55.66c2.88-20.04,1.21-40.12-1.07-60.16
			c-1.7-14.9-4.25-29.69-7.61-44.3c-3.31-14.38-7.93-27.62-13.94-41.06c-2.68-5.99-5-12.17-5.67-18.74
			c-0.98,0.13-1.96,0.27-2.95,0.4c2.02,13.31-0.58,27.84-3.43,40.82c-3.25,14.83-8.22,31.21-18.75,42.6
			c-4.24,4.58-9.74,7.72-16.09,7.62c-8.21-0.12-17.17-6.08-21.18-12.97c-5.5-9.45-2.2-22.2,0.49-31.97
			c2.68-9.73,6.01-19.16,8.04-29.07c1.32-6.45,3.69-21.17-3.37-25.5c-3.58-2.19-7.42-0.31-10.53,1.85c-1.5,1.04-5.24,3.27-5.24,5.23
			c0,2.09,0.59,4.29,0.66,6.42c0.11,3.47-0.61,6.88-1.6,10.19c0.48-0.37,0.96-0.73,1.45-1.1c-5.49,0.62-11.25-0.12-13.55-5.9
			c-0.7-1.75-3.42-1.11-2.89,0.8c1.42,5.17,2.34,12.92-3.04,16.27c-6.05,3.76-10.02-7.31-10.02-11.42c0-1.93-3-1.93-3,0
			c0,7.64-1.73,17.87-10.64,19.62c-6.94,1.36-12.77-4.98-14.59-10.97c-0.62-2.04-1.84-10.48,0.85-10.73c3.08-0.29,4.6,1.7,5.15,4.47
			c1.39,7.04-2.76,15.55-6.01,21.49c-3.83,7-9.49,14.43-17.13,17.46c-7.42,2.95-17.46,0.17-21.06-7.12c-6.36-12.88,1.7-28.8-4.12-42
			c-2.14-4.85-6.43-9.32-11.73-10.39c-5.08-1.03-10.15,1.57-14.17,4.4c-11.1,7.82-19.17,20.42-26.01,31.9
			c-9.24,15.49-15.62,32.86-20.14,50.26c-5.26,20.21-7.85,42.33-2.33,62.76c0.47,1.75,2.76,1.19,2.95-0.4
			c5.6-47.76,14.2-95.06,12.91-143.35c-0.35-13.18-1.57-30.53-13.11-39.09c-9.58-7.1-30.34,0.41-29.8,13.43
			C17.58,81.93,20.58,81.94,20.5,80L20.5,80z"/>

</svg>



