<svg xmlns="http://www.w3.org/2000/svg" viewBox="0 0 800 300">
	<title> new york </title>
		<defs>
			<style>
				path {
				  stroke-dasharray: 1000;
				  stroke-dashoffset: 1000;
				  animation: offset 5s linear alternate infinite;
				  fill: white;
				}

				@keyframes offset {
				  from {
				    stroke-dashoffset: 1000;
				  }
				  to {
				    stroke-dashoffset: 0;
				  }
				}
			</style>
		</defs>
			<path fill="white" stroke="#000000" stroke-width="4" stroke-miterlimit="10" d="M765,181.83c-12.28,0.03-24.54,0.94-36.82,0.71c-10.35-0.2-22.92-0.44-31.29-7.35c-7.02-5.8-10.98-14.94-13.63-23.42
				c-2.62-8.37-4.05-17.33-3.77-26.1c0.02-0.66-0.92-0.62-1,0c-1.39,11.2-6.13,21.99-12.44,31.27c-6.67,9.8-16.17,17.99-28.49,18.35
				c-11.8,0.35-23.4-5.92-31.52-14.1c-4.01-4.04-7.16-8.92-9.01-14.3c-0.98-2.85-1.91-5.4-3.18-8.17
				c-1.72-3.79-3.09-7.72-3.71-11.84c-0.08-0.5-0.86-0.46-0.96,0c-2.29,9.67-2.37,19.6-5.93,28.98c-2.93,7.71-8.12,14.38-14.45,19.6
				c-12.78,10.55-30.5,14-46.55,10.8c-5.99-1.19-11.15-3.12-14.64-8.34c-2.86-4.26-4.06-9.52-4.89-14.51
				c-1.92-11.52-1.31-23.3-2.34-34.91c-0.59-6.56-1.59-16.98-8.79-19.87c-0.79-0.32-1.58-0.53-2.42-0.67
				c-1.55-0.26-0.81-1.12-0.88-2.71c-0.15-3.53-2.15-6.74-4.06-9.58c-2.83-4.24-4.93-8.16-6.32-13.12
				c-1.66-5.92-2.17-12.1-1.74-18.22c-0.33,0-0.67,0-1,0c-0.02,4.42-0.25,8.83-0.43,13.25c-0.22,5.41,0.08,10.86-1.19,16.16
				c-0.92,3.88-2.35,7.58-2.61,11.59c-0.08,1.21,0.66,2.45-0.49,2.76c-0.7,0.19-1.35,0.54-1.94,0.96
				c-5.85,4.06-3.48,15.41-2.64,21.1c1.71,11.57,4.81,22.93,5.87,34.6c0.41,4.46,0.56,9.25-0.99,13.52
				c-2.34,6.45-8.88,5.02-14.4,4.21c-13.51-1.98-27.33,1.97-40.52,4.69c-6.88,1.42-13.87,2.69-20.91,2.79
				c-2.62,0.04-5.3-0.17-7.78-1.06c-2.55-0.91-3.12-2.71-3.33-5.18c-0.52-5.94,0.54-12.15,1.35-18.02
				c0.88-6.41,1.98-12.79,2.91-19.2c2.47-17.07,0.58-34.54,2.47-51.7c0.09-0.82,0.2-1.64,0.31-2.46c-0.33,0.04-0.65,0.09-0.98,0.13
				c4.36,17.62,7.82,35.4,12.94,52.84c1.35,4.61,10.55,40.5,20.46,33.46c0.18-0.13,0.3-0.33,0.23-0.56
				c-5.12-17.49-7.44-35.53-9.47-53.59c-0.91-8.07-2.24-16.19-2.73-24.3c-0.33-5.52-0.14-11.2-1.7-16.56
				c-1.36-4.7-5.65-6.2-10.16-6.02c-3.15,0.12-6.5,1.2-9.54-0.11c-1.77-0.76-2.19-3.89-2.55-5.51c-1.99-8.98-1.83-18.62-1.83-27.78
				c-0.33,0-0.67,0-1,0c0.05,12.11,3.54,31.84-12.97,34.18c-0.22,0.03-0.36,0.28-0.37,0.48c-0.41,11.19-0.3,22.38-0.01,33.57
				c0.25,9.7,0.28,19.45,1.69,29.07c1.36,9.28,3.38,18.96,1.46,28.3c-1.71,8.34-8.42,12.69-16.35,14.19
				c-7.2,1.36-15.58,0.46-22.24-2.64c-8.19-3.8-8.42-12.85-7.29-20.59c0.92-6.29,2.76-12.43,3.2-18.79
				c0.37-5.45,0.43-10.92,0.23-16.37c-0.22-5.98-0.55-12.75-3.07-18.29c-0.81-1.79-1.85-3.46-3.6-4.43
				c-0.79-0.44-1.66-0.13-1.57-0.92c0.25-1.99,0.54-4.16,0.18-6.16c-0.44-2.42-1.81-4.57-4.51-4.73c-1.03-0.06-2.02-6.15-2.32-7.16
				c-0.58-1.92-1.33-3.79-2.09-5.65c-1.83-4.46-3.91-8.78-4.84-13.54c-1.11-5.71-0.91-11.6-1.88-17.34
				c-0.1-0.59-0.94-0.39-0.98,0.13c-0.39,4.98,0.14,10.03,0.02,15.03c-0.12,5.14-0.39,13.84-6.32,15.82
				c-0.21,0.07-0.37,0.25-0.37,0.48c0.1,4.65,1.64,10.3-3.3,12.98c-2.49,1.35-3.26,3.64-2.99,6.37c0.27,2.74,1.23,7.31-3.58,7.25
				c-1.29-0.02-2.74-0.48-4.01-0.11c-2.77,0.79-3.09,3.47-3.06,6.02c0.03,2.83,0.32,4.9-1.81,7.19c-1.17,1.26-2.61,2.25-3.78,3.53
				c-2.12,2.3-1.5,6.82-1.2,9.59c0.67,6.27,1.9,12.29,1.93,18.62c0.03,5.77-0.38,11.58-1.48,17.26c-0.98,5.07-2.7,11.21-7.27,14.2
				c-2.26,1.48-5,1.34-7.49,0.64c-3.95-1.12-5.8-5.89-7.25-9.32c-2.82-6.71-4.97-12.41-10.68-17.34c-3.75-3.23-8.64-5.64-11.55-9.73
				c-2.25-3.17-4.24-6.55-6.14-9.94c-1.05-1.88-2.05-3.81-2.84-5.82c-0.98-2.52,0.15-4.46,1.74-6.45c1.75-2.2,4.48-4.08,2.03-6.96
				c-1.07-1.26-2.43-1.89-3.84-2.72c-3.04-1.79-1.71-7.4-0.93-10.03c1.31-4.42,3.02-8.18,0.81-12.63c-1.05-2.1-3.64-3.24-5.83-2.26
				c-3.31,1.49-4.69,4.9-4.83,8.35c0.33,0,0.67,0,1,0c-0.78-9.49-2.35-23.21-10.91-29.1c-0.34-0.23-0.9,0.16-0.73,0.56
				c5.42,12.88,7.8,27.81,7.61,41.72c-0.09,6.65-0.95,13.94-4.79,19.57c-2.17,3.18-6.59,3.3-9.47,5.61
				c-3.15,2.54-2.19,7.03-4.55,9.95c-2.23,2.75-6.41,3.87-9.48,5.37c-3.31,1.61-5.63,4.13-7.27,7.4
				c-2.69,5.37-2.74,11.57-3.03,17.44c-0.35,7.03-1.31,14.08-7.53,18.39c-7.67,5.3-18.68,4.24-27.42,3.29
				c-6.54-0.71-13.03-1.88-19.56-2.7c-6.84-0.86-13.6-0.78-20.46-0.24c-14.64,1.16-29.44,4.14-44.1,1.6
				c-0.63-0.11-0.9,0.85-0.27,0.96c19.86,3.45,39.61-3.2,59.5-1.86c9.51,0.64,18.88,2.73,28.37,3.59
				c7.95,0.72,16.59,0.68,23.73-3.33c11.49-6.45,7.49-21.89,10.11-32.51c1.04-4.21,3.29-7.97,6.96-10.34
				c3.08-1.99,6.68-2.88,9.67-5.05c2.46-1.78,2.87-3.98,3.57-6.8c1.41-5.67,6.33-5.69,10.43-8.46c3.41-2.3,4.78-8,5.56-11.71
				c1.26-5.99,1.19-12.25,0.79-18.32c-0.75-11.38-2.98-23.27-7.41-33.81c-0.24,0.19-0.49,0.38-0.73,0.56
				c8.16,5.62,9.68,19.19,10.42,28.23c0.05,0.64,0.97,0.65,1,0c0.15-3.57,3.64-10.56,8.03-6.64c3.93,3.51,0.77,9.84-0.41,13.83
				c-0.73,2.49-1.29,6.61,0.32,8.92c1.52,2.19,7.7,3.64,4.94,7.11c-1.69,2.12-3.71,3.95-4.46,6.64c-0.51,1.83,0.83,4.08,1.57,5.66
				c2.36,5.02,5.34,10.77,9.14,14.88c5.84,6.31,13.8,9.45,17.8,17.56c2.71,5.49,3.75,12.5,8.65,16.64
				c2.98,2.53,8.01,2.25,11.13,0.21c3.67-2.41,5.39-7.17,6.53-11.19c2.56-9.07,2.31-18.56,2.07-27.87c-0.1-3.89-1.2-7.76-1.7-11.61
				c-0.31-2.37-0.35-4.73,0.12-7.09c0.41-2.09,2.42-3.36,3.91-4.69c2.48-2.21,2.96-4.29,2.81-7.53c-0.14-3.09,0.51-6.33,4.41-6.04
				c1.42,0.11,2.71,0.21,4.1-0.13c2.29-0.57,2.52-3.21,2.47-5.14c-0.06-2.4-0.9-4.41,0.25-6.74c0.73-1.49,2.67-1.75,3.78-2.81
				c2.32-2.22,2.25-4.56,2.14-7.64c-0.02-0.72-0.72-4.42,0.05-4.75c0.93-0.4,1.67-0.91,2.4-1.61c3.37-3.18,3.69-9.06,3.93-13.35
				c0.31-5.54-0.39-11.1,0.04-16.62c-0.33,0.04-0.65,0.09-0.98,0.13c1.34,7.99,0.78,16.11,3.76,23.76
				c2.63,6.75,5.43,13.1,6.91,20.24c0.05,0.23,0.27,0.35,0.48,0.37c5.82,0.34,4.67,6.77,4.17,10.83c-0.03,0.28,0.25,0.49,0.5,0.5
				c5.25,0.24,6.36,8.6,6.98,12.5c1.01,6.35,1.06,12.89,0.93,19.31c-0.12,5.62-0.67,11.03-1.79,16.55
				c-1.31,6.49-2.96,13.17-1.92,19.82c2.07,13.23,19.55,15,30.18,13.55c5.96-0.82,11.7-3.46,15.22-8.47
				c4.36-6.2,3.71-15.22,3.01-22.33c-0.47-4.71-1.28-9.39-1.96-14.07c-0.89-6.05-1.01-12.12-1.21-18.22
				c-0.46-13.5-0.76-27.02-0.37-40.53c0.08-2.9,2.41-2.5,4.65-3.42c1.21-0.5,2.28-1.23,3.3-2.05c2.46-1.98,3.8-5.04,4.63-8
				c2.13-7.63,0.88-16.01,0.85-23.81c0-0.64-1-0.65-1,0c0,5.23,0.11,10.46,0.42,15.69c0.31,5.19,0.39,11.45,2.62,16.25
				c2.51,5.41,10.74,1.96,15.27,2.59c8.66,1.21,7.15,15.2,7.47,21.45c0.53,10.3,2.3,20.7,3.49,30.95
				c1.23,10.59,2.69,21.16,4.84,31.61c0.54,2.61,1.15,5.21,1.78,7.8c0.16,0.66,2.22,7.33,2.14,7.38c-1.01,0.72-2.18,0.72-3.27,0.2
				c-2.81-1.34-4.57-4.86-5.96-7.46c-7.2-13.52-10.79-29.32-14.5-44.06c-2.88-11.46-5.15-23.07-7.99-34.53
				c-0.15-0.59-0.91-0.39-0.98,0.13c-2.34,17.89-0.22,36.08-2.75,53.9c-1.7,11.99-4.7,24.28-4.35,36.45c0.1,3.46,0.77,5.8,4.13,7.18
				c5.01,2.06,11.46,1.09,16.64,0.44c13.76-1.72,27.04-5.6,40.86-7.09c6.67-0.72,12.72,0.82,19.31,1.04
				c3.32,0.11,5.64-1.24,7.29-4.09c3.73-6.44,1.91-15.84,0.86-22.73c-1.55-10.23-4.13-20.29-5.41-30.56
				c-0.68-5.44-2.24-16.77,5.39-18.04c0.29-0.05,0.39-0.37,0.35-0.61c-1.12-7.17,3.15-14.04,3.35-21.2
				c0.21-7.55,0.63-15.11,0.67-22.67c0-0.65-0.96-0.64-1,0c-0.56,8.06,0.38,17.05,3.76,24.49c3.01,6.62,9.15,11.62,8.24,19.51
				c-0.03,0.28,0.25,0.49,0.5,0.5c10.07,0.47,11.18,13.29,11.82,20.94c0.95,11.29,0.5,22.68,2.27,33.9
				c1.36,8.62,4.52,18.06,13.25,21.62c13.37,5.44,29.89,3.76,42.82-1.94c9.28-4.09,17.18-10.98,22.57-19.55
				c7.08-11.26,6.78-24.15,9.75-36.67c-0.32,0-0.64,0-0.96,0c0.57,3.77,1.76,7.39,3.28,10.88c1.57,3.58,2.83,7.15,4.2,10.79
				c1.97,5.24,5.43,9.83,9.34,13.76c8.2,8.26,19.85,13.74,31.56,13.72c11.67-0.02,20.82-7.62,27.61-16.43
				c7.49-9.72,12.8-21.99,14.32-34.19c-0.33,0-0.67,0-1,0c-0.28,8.9,1.25,17.87,3.8,26.37c2.58,8.58,6.65,17.21,13.31,23.36
				c7.33,6.76,18.35,7.44,27.81,7.97c13.85,0.78,27.72-0.5,41.58-0.54C765.64,182.83,765.64,181.83,765,181.83L765,181.83z"/>

</svg>
