
<svg xmlns="http://www.w3.org/2000/svg" viewBox="0 0 650 300">
	<title> new york </title>
		<defs>
			<style>
				path {
				  stroke-dasharray: 1000;
				  stroke-dashoffset: 1000;
				  animation: offset 5s linear alternate infinite;
				  fill: white;
				}

				@keyframes offset {
				  from {
				    stroke-dashoffset: 1000;
				  }
				  to {
				    stroke-dashoffset: 0;
				  }
				}
			</style>
		</defs>

			<path fill="white" stroke="#000000" stroke-width="4" stroke-miterlimit="10" d="M797.5,170c-6.22,0.09-12.42,1.28-18.63,0.27c-8.58-1.39-8.48-10.7-8.47-17.63c0.03-18.56,0.18-37.1-0.91-55.64
				c-0.01-0.24-0.22-0.54-0.5-0.5c-2,0.26-3.98,0.23-6,0.3c-1.51,0.05-1.01-2.25-1.13-3.25c-0.19-1.64-0.79-3.15-1.79-4.45
				c-2.31-3.03-6.67-2.13-9.72-1.08c-0.21,0.07-0.38,0.25-0.37,0.48c0.09,2.38,1.51,8.38-1.43,9.43c-1.88,0.67-3.08,0.92-4,2.82
				c-1.94,4,0.76,9.62,0.93,13.75c0.37,8.66,0.49,17.33,0.5,26c0.01,6.09,0.53,12.23,0.19,18.31c-0.16,2.88-0.7,6-2.73,8.19
				c-2.74,2.95-8.82,1.76-12.23,1.16c-2.68-0.48-5.33-1.19-8.04-1.51c-1.43-0.17-2.81-0.25-4.25-0.2c-1.67,0.05-2.55,0.97-3.27-0.98
				c-1.92-5.19-1.71-11.33-1.43-16.77c0.28-5.47,0.96-11.38,3.19-16.45c0.12-0.26,0.05-0.68-0.3-0.73
				c-10.52-1.52-24.13-3.44-29.7-13.77c-0.15-0.28-0.57-0.33-0.79-0.1c-7.21,7.78-15.28,17.85-26.28,19.87
				c-0.23,0.04-0.35,0.27-0.37,0.48c-0.42,6.29,1.37,12.35,2.76,18.42c0.81,3.52,1.36,7.06,1.25,10.68
				c-0.08,2.66,0.02,3.14-2.57,3.62c-4.39,0.81-9.13,0.35-13.58,0.28c-2.68-0.04-5.37,0.19-8-0.47c-3.94-0.99-5.57-5.62-6.42-9.11
				c-1.48-6.12-0.91-12.77-0.63-19c0.34-7.72,0.29-15.44,0.71-23.16c0.94-17.6,2.92-35.13,2.97-52.77c0-0.26-0.23-0.51-0.5-0.5
				c-12.73,0.49-25.52,0.5-38.13,2.52c-0.22,0.04-0.36,0.28-0.37,0.48c-1.23,27.76,2.53,55.08,6.19,82.5
				c0.46,3.42,2.53,17.93-2.34,18.03c-5.02,0.11-12,1.08-16.02-2.68c-1.45-1.35-1.44-4.48-1.68-6.24
				c-0.45-3.38-0.75-6.71-0.83-10.11c-0.16-7,0.46-13.99,0.17-21c-0.01-0.28-0.22-0.49-0.5-0.5c-7.36-0.33-14.41,1.42-21.63,2.52
				c-0.22,0.03-0.36,0.28-0.37,0.48c-0.42,11.77,2.53,24.83-2.91,35.82c-3.17,6.4-8.65,9.53-15.64,8.04
				c-2.88-0.61-5.62-1.89-8.26-3.14c-1.25-0.59-2.47-1.21-3.71-1.82c-0.71-0.35-2.37-0.81-2.13-1.05c0.28-0.28,0.13-0.72-0.22-0.84
				c-26.08-8.61-22.21-38.6-23.13-60.52c-0.03-0.64-0.97-0.65-1,0c-0.64,16.28-5.61,32.14-16.53,44.48
				c-10.78,12.18-27.65,20.14-43.92,20.43c-31.79,0.56-40.45-36.79-40.55-61.91c0-0.66-0.94-0.63-1,0
				c-3.17,32.26-26.04,70.58-63,66.5c0.04,0.33,0.09,0.65,0.13,0.98c0.17-0.06,0.33-0.11,0.5-0.17c0.51-0.17,0.46-1.04-0.13-0.98
				c-6.01,0.58-6.26-9.97-6.57-13.87c-0.42-5.33-0.29-10.65-1.37-15.9c-0.95-4.64-2.79-9.4-7.25-11.63
				c-4.74-2.37-11.08-1.5-16.15-1.27c-0.27,0.01-0.5,0.22-0.5,0.5c0,8.19-0.01,16.05,1.24,24.15c0.73,4.76,1.34,9.65,0.12,14.38
				c-0.63,2.43-1.69,5.82-4.39,6.52c-2.73,0.71-6.15-0.15-8.91-0.28c-3.32-0.15-6.69-0.71-9.67-2.23c-4.94-2.52-5.85-8.3-6.25-13.27
				c-0.55-6.7-0.7-13.54-0.65-20.25c0.06-8.05,0.23-15.86-3.75-23.09c-2.18-3.96-4.84-7.46-6.44-11.73
				c-1.39-3.69-2.79-7.36-4.07-11.09c-2.78-8.09-5.34-17.09-3.56-25.66c-0.32,0-0.64,0-0.96,0c3.32,8.87,3.3,19.95,1.18,29.09
				c-0.82,3.55-2,7.04-3.21,10.48c-0.89,2.52-2.62,9.48-5.62,10.49c-0.21,0.07-0.37,0.25-0.37,0.48c0,8.35-0.12,16.45,1.21,24.7
				c1.34,8.24,3.13,16.8,1.91,25.17c-0.53,3.64-2.1,7.4-5.39,9.35c-3.35,1.98-8.3,1.78-12.04,1.69c-4.75-0.12-8.93-1.03-11.82-5.13
				c-2.63-3.73-2.45-9.1-2.71-13.44c-0.8-13.73,1.89-28.29-1.99-41.69c-0.63-2.19-1.65-4.29-3.23-5.95
				c-2.2-2.31-5.63-0.48-8.35-0.91c-3.25-0.52-2.08-11.44-2.12-13.85c-0.09-5.55,0.64-11.05,0.19-16.6
				c-0.03-0.34-0.3-0.55-0.63-0.48c-10.27,2.09-9.51-8.51-10.6-15.53c-1.52-9.84-4.72-19.95-4.1-29.98c-0.33,0-0.67,0-1,0
				c0.01,8.03,0.17,16.06,0.26,24.09c0.04,4.03,0.05,8.07,0.01,12.1c-0.02,2-0.06,4-0.11,6c-0.03,0.99-0.06,1.99-0.1,2.98
				c-0.07,1.88-4.09,1.17-4.76,1c-0.3-0.08-0.65,0.15-0.63,0.48c0.35,5.45,0.82,10.89,1.17,16.33c0.19,2.99,0.3,5.98,0.34,8.97
				c0.03,2.04,1.02,6.8-1.88,6.65c-6.18-0.3-4.75,8.26-5.08,12.14c-0.94,11.13,2.27,22.31,3.62,33.28
				c1.13,9.2,0.31,17.71-9.82,20.44c-6.97,1.87-14.61,0.96-21.74,1.04c-4.43,0.04-9.36,1.08-13.55-0.77
				c-4.23-1.87-5.08-7.68-5.45-11.68c-0.79-8.5-0.01-17.4,0.14-25.93c0.21-11.97,1-23.93,2.58-35.8c-0.33,0.04-0.65,0.09-0.98,0.13
				c3.35,13.06,3.12,26.9,7.48,39.7c3.86,11.35,11.37,21.03,16.57,31.75c0.23,0.47,0.91,0.21,0.93-0.25
				c0.59-15.09-1.91-29.82-2.71-44.83c-0.56-10.59,2.17-21.11,0.73-31.71c-0.54-3.96-2.27-7.62-5.32-10.25
				c-2.02-1.74-3.63-3.04-4.69-5.63c-1.49-3.65-1.35-7.76-1.14-11.61c0.83-15.1-0.18-30.19-0.21-45.31c-0.33,0-0.67,0-1,0
				c0.55,12.33-1.93,24.47-3.33,36.67c-0.65,5.62-1.21,11.23-2.58,16.74c-0.92,3.69-2.11,7.99-6.07,9.12
				c-2.91,0.83-5.52,2.44-8.5,3.03c-1.32,0.26-2.29,0.26-2.88,1.61c-3.45,7.96-1.67,18.07-1.22,26.4
				c0.64,12.09,0.82,24.18,2.04,36.23c0.58,5.72,5.63,19.42-2.48,21.33c-4.14,0.98-9.26-0.6-12.87-2.59
				c-3.58-1.98-4.07-6.62-4.39-10.28c-0.72-8.09,0.44-16.32,1.03-24.38c0.37-5,0.35-9.93-1.11-14.76c-1.7-5.64-5.15-10.48-6.35-16.3
				c-0.51-2.49-0.68-5.4-1.7-7.73c-1.39-3.15-2.93-6.18-3.85-9.51c-1.09-3.94-0.76-8.2-0.73-12.24c0.03-4.45,0.23-8.9,0.65-13.33
				c0.05-0.56-0.9-0.69-0.98-0.13c-1.71,11.77-0.65,24.53-5.54,35.59c-1.43,3.24-2.6,6.35-3.03,9.89c-0.29,2.44-0.69,1.59-2.69,1.8
				c-0.94,0.1-1.7,0.66-2.35,1.3c-1.57,1.55-1.76,4.34-1.97,6.39c-0.17,1.63-0.2,3.29-0.27,4.93c-0.11,2.22-0.62,1.41-2.56,1.54
				c-4.7,0.32-4.86,6.07-4.76,9.57c0.09,3.04,0.51,6.07,0.63,9.11c0.14,3.37-1.6,12.5-6.85,9.87c-3.61-1.81-5.09-7.98-5.96-11.52
				c-1.28-5.23-0.13-10.28-0.4-15.54c-0.24-4.79-3.42-8.52-2.4-13.57c0.6-2.95,3.99-6.58,3.06-9.8c-1.82-6.34-7.19-5.74-8.78,0.15
				c-0.09,0.33-0.21,2.06-0.29,1.99c-0.93-0.8-1.59-1.88-2.23-2.91c-1.52-2.43-2.53-5.17-3.49-7.85c-1.65-4.63-2.85-9.44-3.83-14.25
				c-0.32,0.09-0.64,0.18-0.96,0.27c1.89,8.52,2.61,17.15,2.65,25.87c0.01,2.2-0.52,25.51-1.57,25.48
				c-7.77-0.19-5.96,13.91-6.09,18.43c-0.08,2.87-0.68,2.33-3.1,2.01c-1.22-0.16-2.74,0.24-3.62,1.13c-2.35,2.36-2.61,6.02-2.9,9.16
				c-0.42,4.58-0.52,9.48-2.64,13.68c-2.28,4.53-9.71,2.25-13.45,1.63c-0.63-0.1-0.9,0.86-0.27,0.96
				c6.43,1.06,13.17,2.87,15.61-4.65c1.22-3.77,1.42-7.71,1.75-11.62c0.46-5.53,1.93-11.08,8.65-8.39c0.24,0.09,0.57-0.1,0.61-0.35
				c0.92-5.27-2.17-21.17,6.18-20.97c0.29,0.01,0.48-0.23,0.5-0.5c1.34-17.42,2.47-34.93-1.35-52.13c-0.14-0.63-1.09-0.36-0.96,0.27
				c1.05,5.16,2.41,10.26,4.18,15.23c1.4,3.93,3.17,8.58,6.71,11.07c0.3,0.21,0.78-0.07,0.75-0.43c-0.25-3.89,2.94-10.39,6.4-4.41
				c1.73,2.99-0.83,6.08-1.86,8.81c-1.83,4.87-0.11,8.9,1.32,13.62c1.65,5.45-0.38,11.38,0.65,17c0.74,4.06,2.31,8.26,4.89,11.51
				c4.77,6.04,9.81-2.4,10.08-7.13c0.33-5.66-4.32-21.39,5.89-19.57c0.34,0.06,0.6-0.14,0.63-0.48c0.44-4.61-0.87-15.66,6.7-13.52
				c0.32,0.09,0.63-0.16,0.63-0.48c0.16-7.07,3.9-12.54,5.52-19.21c2.25-9.29,1.76-19.22,3.13-28.65c-0.33-0.04-0.65-0.09-0.98-0.13
				c-0.94,10.13-2.16,21.44,1.97,30.99c1.86,4.3,2.94,8.4,3.88,12.97c0.86,4.19,3.02,7.87,4.74,11.73
				c6.85,15.37-1.9,32.46,2.43,48.32c1.57,5.74,7.58,7.49,12.9,8.19c2.37,0.31,5.78,0.27,7.73-1.4c1.96-1.68,2.03-4.24,2-6.67
				c-0.03-3.5-0.73-7.02-1.29-10.46c-0.81-4.98-1.16-10.04-1.5-15.08c-0.83-12.29-1.11-24.64-1.72-36.94
				c-0.22-4.51,0.39-8.83,1.47-13.2c0.54-2.2,2.36-1.84,4.24-2.38c2.64-0.75,5.08-2.09,7.72-2.88c1.7-0.51,2.6-1.66,3.42-3.18
				c4.22-7.82,4.3-17.63,5.36-26.25c1.37-11.24,3.5-22.4,2.99-33.77c-0.03-0.64-1-0.65-1,0c0.03,14.61,1.39,29.35,0.3,43.93
				c-0.4,5.35-0.56,11.14,2.38,15.87c0.89,1.43,2.35,2.42,3.64,3.46c2.28,1.84,3.69,4.4,4.52,7.17c3.13,10.44-0.33,22.53-0.24,33.21
				c0.06,7.11,1.34,14.33,1.96,21.42c0.71,8.08,1.09,16.17,0.77,24.28c0.31-0.08,0.62-0.17,0.93-0.25
				c-5.18-10.69-12.39-20.3-16.47-31.52c-4.6-12.66-4.14-26.69-7.48-39.7c-0.15-0.59-0.91-0.39-0.98,0.13
				c-2.57,19.29-3.35,39.17-2.89,58.63c0.13,5.39,0.69,11.78,5.4,15.23c2.21,1.62,5.44,1.6,8.04,1.57c4.2-0.04,8.39-0.28,12.6-0.23
				c9.84,0.12,25.41,0.54,26.99-12.44c1.21-9.98-2.1-20.6-3.39-30.45c-0.67-5.09-0.79-10.15-0.33-15.26c0.15-1.7,0.08-3.42,0.2-5.12
				c0.24-3.51,2.99-3.82,5.88-3.44c0.28,0.04,0.49-0.26,0.5-0.5c0.35-6.45,0.07-12.89-0.36-19.33c-0.2-2.98-0.44-5.96-0.67-8.94
				c-0.01-0.19-0.5-3.81,0.18-3.63c1.25,0.32,3.08-0.18,4.35-0.26c0.28-0.02,0.49-0.21,0.5-0.5c0.63-15.55,0.02-31.11,0-46.67
				c0-0.65-0.96-0.64-1,0c-0.61,9.9,2.56,19.76,4.02,29.47c0.69,4.63-0.01,13.15,4.52,16.17c1.21,0.81,6.87,1.27,6.9,1.7
				c0.48,5.98-0.49,11.99-0.22,17.98c0.15,3.37-0.52,6.9,0.48,10.19c0.77,2.56,4.33,2.1,6.32,1.82c12.57-1.77,8.49,35.55,8.55,42.8
				c0.06,6.62-0.2,15.04,4.3,20.39c4.15,4.92,12.78,4.57,18.48,3.72c4.31-0.64,7.44-2.01,9.64-5.91c2.33-4.14,2.29-9.49,2.09-14.08
				c-0.25-5.76-1.32-11.48-2.25-17.16c-1.11-6.75-1.18-13.25-1.18-20.08c0-0.51-0.29-3.82,0.03-4.01c0.53-0.31,0.92-0.71,1.31-1.18
				c1.18-1.42,1.93-3.23,2.67-4.9c1.91-4.31,3.34-8.85,4.61-13.38c2.78-9.88,2.99-21.98-0.64-31.67c-0.16-0.42-0.85-0.53-0.96,0
				c-1.92,9.2,0.99,18.72,3.96,27.38c1.42,4.13,2.92,8.28,4.64,12.3c2.28,5.36,6.22,9.66,8.07,15.26c1.72,5.21,1.17,11.5,1.12,16.9
				c-0.05,5,0.23,9.98,0.39,14.97c0.17,5.47,0.1,11.87,3.52,16.48c3.6,4.86,10.47,5.03,15.91,5.43c5.33,0.39,8.88,0.92,11.1-4.51
				c3.83-9.36-0.39-19.08-0.39-28.68c0-2.79,0-5.58,0-8.38c0-0.45-0.4-3.85,0.56-3.9c1-0.04,1.99-0.08,2.99-0.12
				c3.53-0.12,7.17-0.17,10.57,0.89c9.49,2.97,8.58,17.53,9.03,25.36c0.27,4.66,0.36,17.28,7.68,16.57
				c-0.04-0.33-0.09-0.65-0.13-0.98c-0.17,0.06-0.33,0.11-0.5,0.17c-0.56,0.19-0.42,0.92,0.13,0.98c37.53,4.15,60.78-34.75,64-67.5
				c-0.33,0-0.67,0-1,0c0.1,26.28,9.17,62.73,41.55,62.91c16.59,0.09,33.59-8.66,44.63-20.72c11.24-12.27,16.18-28.84,16.82-45.19
				c-0.33,0-0.67,0-1,0c0.53,12.49-0.45,25.16,2.41,37.44c1.27,5.44,3.57,10.56,7.12,14.89c1.72,2.09,3.83,3.82,6.07,5.33
				c1.33,0.9,2.78,1.62,4.23,2.3c1.01,0.47,3.34,1.16,3.31,1.19c-0.21,0.21-0.19,0.64,0.1,0.79c8.71,4.2,19.73,11.21,28.21,2.9
				c9.39-9.21,6.7-25.41,6.49-37.13c-0.02-1.15-0.62-3.67,1.08-3.93c2.35-0.36,4.69-0.83,7.03-1.24c2.33-0.42,4.67-0.74,7.03-0.96
				c2.62-0.25,5.42-0.96,5.5,2.43c0.2,8.53-0.93,17.13,0.22,25.63c0.5,3.69,0.22,8.4,3.81,10.54c5.02,3,11.84,1.88,17.38,1.83
				c0.22,0,0.42-0.15,0.48-0.37c2.83-10.18,0.4-20.72-1.2-30.89c-1.98-12.61-3.01-25.51-3.85-38.24c-0.4-6.12-0.63-12.25-0.69-18.38
				c-0.03-3.03,0.01-6.07,0.08-9.1c0.02-0.99-0.45-3.99,1.19-4.25c2.32-0.37,4.66-0.62,6.99-0.86c5.89-0.6,11.82-0.81,17.73-1.01
				c2.95-0.1,5.9-0.19,8.85-0.29c3.88-0.13,2.32,5.84,2.23,8.62c-0.42,12.97-1.68,25.91-2.52,38.86
				c-0.73,11.14-0.87,22.31-1.21,33.47c-0.21,7.16-0.53,17.18,5.59,22.24c2.18,1.8,5.39,1.72,8.04,1.72c3.31,0,6.63,0.08,9.94,0.06
				c1.96-0.01,3.95-0.03,5.89-0.3c0.93-0.13,2.06-0.77,2.94-0.77c0.21,0,0.44-0.15,0.48-0.37c1.31-6.14-0.2-12.2-1.63-18.18
				c-0.86-3.6-1.65-7.19-1.91-10.9c-0.13-1.85-0.25-3.01,1.76-3.52c1.47-0.37,2.87-1.03,4.23-1.69c5.84-2.82,10.71-7.74,15.16-12.34
				c1.06-1.1,2.1-2.23,3.14-3.35c0.99-1.06,1.34-2.28,2.32-0.71c1.24,2,3.05,3.58,4.92,4.98c4.44,3.32,10.15,4.87,15.47,6.04
				c2.64,0.58,5.32,0.99,7.99,1.39c0.46,0.07-1.03,4.42-1.25,5.37c-2.07,9.02-3.36,21.44,0.88,30.03c0.1,0.2,0.36,0.29,0.56,0.23
				c5.75-1.61,11.53,0.82,17.24,1.54c3.54,0.44,8.91,0.88,11.36-2.44c2.37-3.2,2.51-7.44,2.56-11.28c0.08-6.09-0.28-12.21-0.3-18.31
				c-0.02-7.67-0.14-15.33-0.49-22.99c-0.22-4.84-4.43-13.76,2.34-15.61c3.3-0.9,2.5-6.09,2.27-8.53c-0.32-3.49,5.96-2.51,7.72-1.13
				c2.33,1.83,2.27,5.63,2.17,8.27c-0.01,0.25,0.24,0.53,0.5,0.5c0.95-0.12,6.99-1.1,7.09,0.55c0.18,3.09,0.31,6.19,0.43,9.28
				c0.24,6.18,0.34,12.37,0.41,18.56c0.11,10.09-0.32,20.24,0.04,30.32c0.2,5.46,1.02,11.51,6.59,13.84
				c6.53,2.72,14.63,0.54,21.43,0.45C798.14,170.99,798.15,169.99,797.5,170L797.5,170z"/>
	
</svg>
